<svg id="Capa_1" enable-background="new 0 0 497 497" height="512" viewBox="0 0 497 497" width="512" xmlns="http://www.w3.org/2000/svg"><g><path d="m447.691 303.794h-233.51c-23.501 0-42.552 19.051-42.552 42.552 0 23.501 19.051 42.552 42.552 42.552h233.51c23.501 0 42.552-19.051 42.552-42.552 0-23.501-19.051-42.552-42.552-42.552z" fill="#ed9b83"/><path d="m196.205 261.241 110.739 82.14c14.249 10.569 33.735 10.569 47.984 0l110.739-82.14z" fill="#60d9a7"/><path d="m388.692 139.593h-115.511c-56.085 0-101.552 45.466-101.552 101.552v20.45c0 23.305 18.893 42.198 42.198 42.198h234.218c23.305 0 42.198-18.893 42.198-42.198v-20.45c0-56.086-45.466-101.552-101.551-101.552z" fill="#f8d070"/><path d="m463.098 388.898h-264.323c-14.992 0-27.146 12.154-27.146 27.146 0 29.833 24.185 54.018 54.018 54.018h210.579c29.833 0 54.018-24.185 54.018-54.018-.001-14.992-12.154-27.146-27.146-27.146z" fill="#f8d070"/><g><g><path d="m248.935 238.5c-4.142 0-7.5-3.358-7.5-7.5v-15.757c0-4.142 3.358-7.5 7.5-7.5s7.5 3.358 7.5 7.5v15.757c0 4.142-3.358 7.5-7.5 7.5z" fill="#423e4f"/></g><g><path d="m412.938 238.5c-4.142 0-7.5-3.358-7.5-7.5v-15.757c0-4.142 3.358-7.5 7.5-7.5s7.5 3.358 7.5 7.5v15.757c0 4.142-3.358 7.5-7.5 7.5z" fill="#423e4f"/></g><g><path d="m330.936 247.88c-10.453 0-20.394-4.528-27.273-12.422-2.721-3.123-2.396-7.86.727-10.582 3.123-2.721 7.86-2.396 10.582.727 4.03 4.624 9.849 7.277 15.965 7.277s11.935-2.652 15.965-7.276c2.721-3.123 7.459-3.449 10.582-.727 3.123 2.721 3.448 7.459.727 10.582-6.88 7.894-16.821 12.421-27.275 12.421z" fill="#423e4f"/></g></g><path d="m115.066 225.163h-46.706l-23.353 56.881 23.353 56.881h46.706l23.353-56.881z" fill="#f9ed80"/><path d="m228.478 266.515c0-46.076 7.22-89 25.252-125.053-46.78 9.075-82.101 50.251-82.101 99.683v20.451c0 21.972 15.145 41.36 36.597 43.353 1.301.121 4.268-1.155 5.601-1.155h17.81c-2.067-12.138-3.159-24.587-3.159-37.279z" fill="#f2c13b"/><path d="m265.28 388.898h-66.505c-14.992 0-27.146 12.153-27.146 27.146 0 29.833 24.185 54.018 54.018 54.018h130.443c-37.166-19.112-68.491-47.182-90.81-81.164z" fill="#f2c13b"/><path d="m231.637 303.794h-17.456c-23.501 0-42.552 19.051-42.552 42.552 0 23.501 19.051 42.552 42.552 42.552h51.098c-16.729-25.471-28.389-54.263-33.642-85.104z" fill="#e7886e"/><path d="m189.797 225.163h-28.025l-23.353 56.881 23.353 56.881h46.706v-95.082c0-10.317-8.364-18.68-18.681-18.68z" fill="#f9ed80"/><circle cx="421.148" cy="102.79" fill="#ff889e" r="75.852"/><path d="m431.754 102.79 25.741-25.741c2.929-2.929 2.929-7.677 0-10.606-2.928-2.929-7.677-2.929-10.606 0l-25.741 25.741-25.741-25.741c-2.929-2.929-7.678-2.929-10.606 0-2.929 2.929-2.929 7.678 0 10.606l25.741 25.741-25.742 25.741c-2.929 2.929-2.929 7.677 0 10.606 2.928 2.928 7.677 2.928 10.606 0l25.741-25.741 25.741 25.741c2.928 2.928 7.678 2.929 10.606 0 2.929-2.929 2.929-7.678 0-10.606z" fill="#fff"/><path d="m40.335 225.163c-10.317 0-18.681 8.364-18.681 18.681v95.082h46.706v-113.763z" fill="#f8d070"/><path d="m115.066 225.163h46.706v113.762h-46.706z" fill="#f8d070"/><path d="m229.723 339.256c-.581-11.087-9.738-19.774-20.84-19.774h-187.634c-11.103 0-20.259 8.686-20.84 19.774-1.15 21.954-.597 59.193 11.429 96.187 6.73 20.701 26.159 34.619 47.927 34.619h110.603c21.768 0 41.197-13.918 47.927-34.619 12.026-36.994 12.579-74.234 11.428-96.187z" fill="#ff889e"/><g><g><path d="m53.512 403.116c-4.142 0-7.5-3.358-7.5-7.5v-11.828c0-4.142 3.358-7.5 7.5-7.5s7.5 3.358 7.5 7.5v11.828c0 4.143-3.358 7.5-7.5 7.5z" fill="#423e4f"/></g><g><path d="m176.621 403.116c-4.142 0-7.5-3.358-7.5-7.5v-11.828c0-4.142 3.358-7.5 7.5-7.5s7.5 3.358 7.5 7.5v11.828c0 4.143-3.358 7.5-7.5 7.5z" fill="#423e4f"/></g><g><path d="m115.066 410.157c-8.387 0-16.363-3.632-21.882-9.966-2.721-3.123-2.396-7.86.727-10.582 3.123-2.721 7.86-2.396 10.582.727 2.669 3.063 6.523 4.821 10.574 4.821s7.905-1.757 10.574-4.821c2.721-3.123 7.459-3.448 10.582-.727s3.448 7.459.727 10.582c-5.52 6.334-13.496 9.966-21.884 9.966z" fill="#423e4f"/></g></g><path d="m32.654 372.705c0-18.874 4.131-36.856 11.6-53.223h-23.005c-11.103 0-20.259 8.686-20.84 19.773-1.15 21.954-.597 59.193 11.429 96.187 6.73 20.702 26.159 34.62 47.927 34.62h16.795c-27.115-24.861-43.906-59.298-43.906-97.357z" fill="#ff748f"/></g></svg>